#!OML:ASF F:\VICON\USERDATA\INSTALL\rory3\rory3.ASF
:FULLY-SPECIFIED
:DEGREES
2468
root -1.44958 17.0885 -0.578782 -9.96648 -1.02187 0.792742
lowerback 3.17586 -0.0977023 -1.54906
upperback -1.37135 -0.108364 3.04661
thorax -3.18728 0.0114746 4.02548
lowerneck -32.7684 -1.62826 -9.9354
upperneck 20.4331 1.08048 4.87567
head 11.9738 0.361027 3.67906
rclavicle 1.03368e-014 2.46493e-014
rhumerus 12.0766 -35.9121 -7.2596
rradius 87.3486
rwrist 24.135
rhand -36.759 4.68679
rfingers 7.12502
rthumb -9.84212 -25.0632
lclavicle 1.03368e-014 2.46493e-014
lhumerus 3.89973 40.8699 7.4495
lradius 91.1869
lwrist -5.40928
lhand -28.5136 21.691
lfingers 7.12502
lthumb -1.88191 51.6625
rfemur 0.126083 2.55373 7.97045
rtibia 36.4749
rfoot -22.2078 -2.12425
rtoes -7.17169
lfemur 3.43636 4.05488 -11.564
ltibia 33.6482
lfoot -21.4041 5.41799
ltoes -24.5495
2469
root -1.45076 17.0968 -0.595954 -9.78386 -1.01933 0.781409
lowerback 3.31008 -0.102892 -1.55395
upperback -1.24271 -0.117015 3.07489
thorax -3.12928 0.00496569 4.05818
lowerneck -32.5739 -1.52009 -9.92306
upperneck 20.4766 1.20879 4.85169
head 11.9467 0.413588 3.69001
rclavicle -3.57812e-015 1.03368e-014
rhumerus 9.37628 -35.1699 -7.04306
rradius 90.1818
rwrist 23.7455
rhand -36.9952 4.45729
rfingers 7.12502
rthumb -10.0701 -25.2818
lclavicle -3.57812e-015 1.03368e-014
lhumerus 0.728434 39.9364 7.35244
lradius 94.5347
lwrist -5.29289
lhand -29.1167 22.7655
lfingers 7.12502
lthumb -2.46445 52.7311
rfemur -0.12123 2.56038 8.00381
rtibia 36.4284
rfoot -22.1177 -2.22852
rtoes -7.16027
lfemur 3.17618 4.16064 -11.538
ltibia 33.6216
lfoot -21.2863 5.31968
ltoes -24.2499
2470
root -1.45122 17.1061 -0.6134 -9.55716 -0.943328 0.745398
lowerback 3.41705 -0.109332 -1.54113
upperback -1.1321 -0.126493 3.09287
thorax -3.07448 -0.00214194 4.0701
lowerneck -32.2442 -1.409 -9.85387
upperneck 20.4377 1.30945 4.791
head 11.8673 0.455361 3.66788
rclavicle 2.16675e-014 -2.3059e-014
rhumerus 6.53451 -34.3988 -6.87674
rradius 92.9807
rwrist 23.506
rhand -37.3662 4.33909
rfingers 7.12502
rthumb -10.428 -25.3823
lclavicle 2.16675e-014 -2.3059e-014
lhumerus -2.26031 38.9098 7.56577
lradius 97.6971
lwrist -5.35979
lhand -29.73 23.6711
lfingers 7.12502
lthumb -3.05667 53.629
rfemur -0.380156 2.51446 8.05564
rtibia 36.3777
rfoot -22.0604 -2.31198
rtoes -7.17984
lfemur 2.83902 4.24354 -11.4919
ltibia 33.6282
lfoot -21.1993 5.178
ltoes -23.9976
2471
root -1.45158 17.1141 -0.63519 -9.3261 -0.872102 0.681847
lowerback 3.57225 -0.0853891 -1.46423
upperback -1.01355 -0.0929841 3.09263
thorax -3.04219 0.0110774 4.02438
lowerneck -32.1263 -1.36402 -9.73557
upperneck 20.6002 1.34427 4.64652
head 11.9099 0.454262 3.6025
rclavicle -7.15625e-015 -2.78299e-014
rhumerus 3.65923 -33.6414 -6.83698
rradius 95.6069
rwrist 23.5262
rhand -37.7937 4.06332
rfingers 7.12502
rthumb -10.8403 -25.6369
lclavicle -7.15625e-015 -2.78299e-014
lhumerus -5.0805 37.8062 8.01787
lradius 100.679
lwrist -5.4526
lhand -30.3147 24.482
lfingers 7.12502
lthumb -3.62133 54.431
rfemur -0.661469 2.42376 8.1267
rtibia 36.3426
rfoot -22.0047 -2.39419
rtoes -7.10281
lfemur 2.47099 4.28579 -11.425
ltibia 33.6342
lfoot -21.0982 5.07767
ltoes -23.99
2472
root -1.45213 17.1206 -0.658746 -9.02743 -0.819752 0.742226
lowerback 3.65363 -0.0605924 -1.49744
upperback -0.879151 -0.0644917 3.06969
thorax -2.95145 0.0225824 4.01702
lowerneck -32.0317 -1.326 -9.69444
upperneck 20.7203 1.38721 4.57704
head 11.9381 0.462667 3.57908
rclavicle 6.55989e-015 1.98785e-014
rhumerus 0.798475 -32.8192 -6.89163
rradius 98.1448
rwrist 23.7903
rhand -38.1905 3.6379
rfingers 7.12502
rthumb -11.223 -26.0419
lclavicle 6.55989e-015 1.98785e-014
lhumerus -7.9113 36.7812 8.6319
lradius 103.493
lwrist -5.76825
lhand -30.6863 25.1315
lfingers 7.12502
lthumb -3.98026 55.0741
rfemur -1.04763 2.3227 8.03772
rtibia 36.3238
rfoot -21.897 -2.42577
rtoes -6.95408
lfemur 2.03722 4.37202 -11.5076
ltibia 33.6441
lfoot -20.9927 5.01803
ltoes -24.1579
2473
root -1.45502 17.1264 -0.678169 -8.73876 -0.787967 0.827566
lowerback 3.67896 -0.0451995 -1.62206
upperback -0.674689 -0.0534747 3.06876
thorax -2.75546 0.0244705 4.08466
lowerneck -32.0328 -1.25129 -9.64937
upperneck 20.8723 1.49057 4.50629
head 11.9903 0.497439 3.56788
rclavicle -6.75868e-015 1.03368e-014
rhumerus -1.94902 -32.0148 -7.16966
rradius 100.608
rwrist 23.9246
rhand -38.573 3.28462
rfingers 7.12502
rthumb -11.5919 -26.3748
lclavicle -6.75868e-015 1.03368e-014
lhumerus -10.75 35.8698 9.44093
lradius 106.144
lwrist -6.33862
lhand -31.0215 25.2692
lfingers 7.12502
lthumb -4.30394 55.2055
rfemur -1.42264 2.25087 7.92994
rtibia 36.3164
rfoot -21.7745 -2.47524
rtoes -6.89873
lfemur 1.64607 4.45403 -11.6113
ltibia 33.652
lfoot -20.8866 4.96517
ltoes -24.3057
2474
root -1.45829 17.1335 -0.692809 -8.5134 -0.761862 0.817389
lowerback 3.69957 -0.0579735 -1.6753
upperback -0.430109 -0.0765869 3.09583
thorax -2.51272 0.00675268 4.14275
lowerneck -32.0595 -1.16283 -9.57187
upperneck 21.0894 1.60122 4.43559
head 12.0724 0.536117 3.55528
rclavicle -8.05078e-015 -1.11319e-014
rhumerus -4.5534 -31.2075 -7.77066
rradius 102.984
rwrist 23.9986
rhand -38.9697 3.08413
rfingers 7.12502
rthumb -11.9744 -26.5534
lclavicle -8.05078e-015 -1.11319e-014
lhumerus -13.6218 34.9017 10.296
lradius 108.58
lwrist -7.04097
lhand -31.2891 25.0966
lfingers 7.12502
lthumb -4.56234 55.0275
rfemur -1.71511 2.18625 7.9402
rtibia 36.3245
rfoot -21.735 -2.50958
rtoes -6.79303
lfemur 1.32991 4.57039 -11.586
ltibia 33.6644
lfoot -20.783 4.86963
ltoes -24.6329
2475
root -1.46318 17.1429 -0.711167 -8.25062 -0.7635 0.748486
lowerback 3.74656 -0.0942041 -1.69634
upperback -0.242585 -0.128054 3.14859
thorax -2.34131 -0.0237215 4.21161
lowerneck -31.9282 -1.0566 -9.44602
upperneck 21.2645 1.71238 4.31021
head 12.1119 0.572045 3.51014
rclavicle 5.56597e-015 0
rhumerus -7.05132 -30.2744 -8.58212
rradius 105.237
rwrist 24.1215
rhand -39.2112 2.86068
rfingers 7.12502
rthumb -12.2073 -26.7631
lclavicle 5.56597e-015 0
lhumerus -16.5322 33.8508 11.19
lradius 110.864
lwrist -7.63266
lhand -31.1293 24.7727
lfingers 7.12502
lthumb -4.40796 54.7068
rfemur -2.07667 2.11985 8.01791
rtibia 36.3411
rfoot -21.6617 -2.41847
rtoes -6.14411
lfemur 0.957438 4.725 -11.4823
ltibia 33.6606
lfoot -20.675 4.70719
ltoes -24.7023
2476
root -1.46962 17.1514 -0.736453 -7.94436 -0.699156 0.748048
lowerback 3.87364 -0.142286 -1.82211
upperback -0.117463 -0.199843 3.17622
thorax -2.27713 -0.0607971 4.31609
lowerneck -31.7462 -0.952838 -9.27584
upperneck 21.5232 1.79754 4.17713
head 12.1785 0.59638 3.45193
rclavicle 1.73937e-014 -7.95139e-015
rhumerus -9.60037 -29.1875 -9.50683
rradius 107.349
rwrist 24.1254
rhand -39.4289 2.96616
rfingers 7.12502
rthumb -12.4172 -26.645
lclavicle 1.73937e-014 -7.95139e-015
lhumerus -19.3267 32.6288 12.2889
lradius 112.951
lwrist -8.10552
lhand -31.0414 24.5921
lfingers 7.12502
lthumb -4.32311 54.528
rfemur -2.4964 2.00961 8.02333
rtibia 36.3499
rfoot -21.5584 -2.37908
rtoes -5.50879
lfemur 0.482916 4.89285 -11.4596
ltibia 33.6542
lfoot -20.5492 4.58212
ltoes -25.1783
2477
root -1.47467 17.1573 -0.758621 -7.73664 -0.588269 0.823537
lowerback 4.11941 -0.191487 -1.96629
upperback 0.0329997 -0.276761 3.133
thorax -2.25275 -0.10052 4.35853
lowerneck -31.6279 -0.833812 -9.02399
upperneck 21.816 1.87983 4.02401
head 12.2712 0.622848 3.37417
rclavicle 1.3418e-014 2.06736e-014
rhumerus -12.1029 -28.0923 -10.6877
rradius 109.196
rwrist 24.3322
rhand -39.6194 3.36268
rfingers 7.12502
rthumb -12.6009 -26.2373
lclavicle 1.3418e-014 2.06736e-014
lhumerus -21.9056 31.2735 13.6134
lradius 114.711
lwrist -8.70694
lhand -31.4779 24.6902
lfingers 7.12502
lthumb -4.74462 54.617
rfemur -2.79569 1.92374 7.95326
rtibia 36.3678
rfoot -21.4925 -2.51901
rtoes -5.88536
lfemur 0.146887 4.93647 -11.5345
ltibia 33.6408
lfoot -20.4502 4.44133
ltoes -25.1851
2478
root -1.47815 17.1658 -0.776138 -7.50048 -0.536019 0.817508
lowerback 4.3407 -0.234546 -1.9741
upperback 0.119715 -0.338217 3.08622
thorax -2.28217 -0.132197 4.31945
lowerneck -31.2572 -0.719856 -8.85593
upperneck 22.0004 1.93806 3.97342
head 12.2761 0.649802 3.33827
rclavicle 8.34896e-015 -1.03368e-014
rhumerus -14.5338 -26.855 -12.0926
rradius 110.902
rwrist 24.7749
rhand -39.8567 3.15505
rfingers 7.12502
rthumb -12.8297 -26.4307
lclavicle 8.34896e-015 -1.03368e-014
lhumerus -24.3332 29.8138 15.1385
lradius 116.143
lwrist -9.30807
lhand -31.9849 24.9393
lfingers 7.12502
lthumb -5.23415 54.8546
rfemur -3.12209 1.849 7.97079
rtibia 36.389
rfoot -21.4391 -2.61265
rtoes -6.2764
lfemur -0.17153 5.03331 -11.5043
ltibia 33.6274
lfoot -20.3699 4.22746
ltoes -24.8062
2479
root -1.48093 17.1754 -0.79786 -7.17193 -0.543859 0.817623
lowerback 4.48678 -0.267761 -2.00203
upperback 0.180409 -0.386127 3.06899
thorax -2.29718 -0.156592 4.32144
lowerneck -30.9026 -0.637307 -8.77681
upperneck 22.3111 1.99221 3.94246
head 12.333 0.666058 3.32757
rclavicle -4.77083e-015 -1.11319e-014
rhumerus -16.9038 -25.6216 -13.559
rradius 112.47
rwrist 25.232
rhand -39.8749 3.3167
rfingers 7.12502
rthumb -12.8471 -26.2679
lclavicle -4.77083e-015 -1.11319e-014
lhumerus -26.6622 28.4079 16.9704
lradius 117.283
lwrist -9.87852
lhand -32.1766 24.9806
lfingers 7.12502
lthumb -5.41927 54.8913
rfemur -3.55901 1.80386 7.97571
rtibia 36.402
rfoot -21.3906 -2.6718
rtoes -6.16759
lfemur -0.597585 5.16929 -11.5065
ltibia 33.5996
lfoot -20.2725 4.09086
ltoes -24.6482
